<svg id="Layer_1" data-name="Layer 1" xmlns="http://www.w3.org/2000/svg" viewBox="0 0 126.73 69.99"><defs><style>.cls-1{fill:none;stroke:#000;stroke-width:1.03px;}</style></defs><title>ohmy-clickme</title><path class="cls-1" d="M10.66,25c5.71,0,8.91,3.16,8.91,8.2V34H15.31v-.84c0-2.58-1.55-4.33-4.65-4.33A4.91,4.91,0,0,0,5.56,34v5.55c0,3.1,1.78,5.17,5.1,5.17s4.65-1.77,4.65-4.33v-.84h4.26v.78c0,5-2.94,8.2-8.91,8.2-5.55,0-9.36-3.16-9.36-9.17V34.15C1.3,28.53,4.95,25,10.66,25Z" transform="translate(-0.78 -1.48)"/><path class="cls-1" d="M26.77,25.44V44.16H37.23V48H22.51V25.44Z" transform="translate(-0.78 -1.48)"/><path class="cls-1" d="M44,25.44V48H39.71V25.44Z" transform="translate(-0.78 -1.48)"/><path class="cls-1" d="M56.4,25c5.71,0,8.91,3.16,8.91,8.2V34H61.05v-.84c0-2.58-1.55-4.33-4.65-4.33A4.91,4.91,0,0,0,51.3,34v5.55c0,3.1,1.78,5.17,5.1,5.17s4.65-1.77,4.65-4.33v-.84h4.26v.78c0,5-2.94,8.2-8.91,8.2-5.55,0-9.36-3.16-9.36-9.17V34.15C47,28.53,50.69,25,56.4,25Z" transform="translate(-0.78 -1.48)"/><path class="cls-1" d="M77.87,34.8,87.39,48H82.16L74.9,37.64,72.51,39.9V48H68.25V25.44h4.26v8.91h.39L82,25.44h5.75Z" transform="translate(-0.78 -1.48)"/><path class="cls-1" d="M49.16,2c5.71,0,8.91,3.16,8.91,8.2V11H53.81v-.84c0-2.58-1.55-4.33-4.65-4.33A4.91,4.91,0,0,0,44.06,11v5.55c0,3.1,1.78,5.17,5.1,5.17s4.65-1.77,4.65-4.33v-.84h4.26v.78c0,5-2.94,8.2-8.91,8.2-5.55,0-9.36-3.16-9.36-9.17V11.17C39.8,5.55,43.45,2,49.16,2Z" transform="translate(-0.78 -1.48)"/><path class="cls-1" d="M65.27,2.45V21.18H75.73V25H61V2.45Z" transform="translate(-0.78 -1.48)"/><path class="cls-1" d="M82.48,2.45V25H78.22V2.45Z" transform="translate(-0.78 -1.48)"/><path class="cls-1" d="M94.91,2c5.71,0,8.91,3.16,8.91,8.2V11H99.55v-.84c0-2.58-1.55-4.33-4.65-4.33A4.91,4.91,0,0,0,89.81,11v5.55c0,3.1,1.78,5.17,5.1,5.17s4.65-1.77,4.65-4.33v-.84h4.26v.78c0,5-2.94,8.2-8.91,8.2-5.55,0-9.36-3.16-9.36-9.17V11.17C85.54,5.55,89.19,2,94.91,2Z" transform="translate(-0.78 -1.48)"/><path class="cls-1" d="M116.37,11.81,125.9,25h-5.23L113.4,14.65,111,16.91V25h-4.26V2.45H111v8.91h.39l9.07-8.91h5.75Z" transform="translate(-0.78 -1.48)"/><path class="cls-1" d="M90.68,48.36,95.46,66.5h.39l4.78-18.14H108V71h-4.13V52.88h-.39L98.79,71H92.52L87.84,52.88h-.39V71H83.32V48.36Z" transform="translate(-0.78 -1.48)"/><path class="cls-1" d="M126.81,48.36v3.87H116.22v5.39h9.69V61.5h-9.69v5.59H127V71H112V48.36Z" transform="translate(-0.78 -1.48)"/></svg>